<svg xmlns="http://www.w3.org/2000/svg" width="1240" height="1210" viewBox="0 0 1240 1210"><rect width="1240" height="1210" fill="#F1E4E9"/><text x="40.0" y="52.0" font-family="Montserrat, Nimbus Sans, Helvetica, Arial, sans-serif" font-size="25" font-weight="bold" fill="#10080C" text-anchor="start">Remainder: the palette and the poles it avoids</text><text x="40.0" y="78.0" font-family="Montserrat, Nimbus Sans, Helvetica, Arial, sans-serif" font-size="14" fill="#4B4045" text-anchor="start">OKLCh hue wheel. Angle is hue, radius is chroma. A color is clear of the poles if it sits inside the</text><text x="40.0" y="97.0" font-family="Montserrat, Nimbus Sans, Helvetica, Arial, sans-serif" font-size="14" fill="#4B4045" text-anchor="start">C_FLOOR disc — a cast, not a hue — or inside the one wedge no signal has claimed.</text><circle cx="400" cy="452" r="300" fill="#F1E4E9" stroke="#4B4045" stroke-width="1" opacity="0.35"/><path d="M 479.6,419.2 L 677.4,337.7 A 300.0,300.0 0 0 0 661.8,305.5 L 475.1,410.0 A 86.1,86.1 0 0 1 479.6,419.2 Z" fill="#D40A20" opacity="0.92"/><text x="697.1" y="312.3" font-family="Montserrat, Nimbus Sans, Helvetica, Arial, sans-serif" font-size="14" font-weight="bold" fill="#10080C" text-anchor="start">destructive</text><text x="697.1" y="329.3" font-family="Hack, DejaVu Sans Mono, monospace" font-size="12" fill="#4B4045" text-anchor="start">22–29°</text><path d="M 457.4,387.9 L 600.2,228.5 A 300.0,300.0 0 0 0 538.2,185.7 L 439.7,375.6 A 86.1,86.1 0 0 1 457.4,387.9 Z" fill="#AB5802" opacity="0.92"/><text x="587.6" y="184.5" font-family="Montserrat, Nimbus Sans, Helvetica, Arial, sans-serif" font-size="14" font-weight="bold" fill="#10080C" text-anchor="start">caution</text><text x="587.6" y="201.5" font-family="Hack, DejaVu Sans Mono, monospace" font-size="12" fill="#4B4045" text-anchor="start">48–63°</text><path d="M 399.4,365.9 L 398.0,152.0 A 300.0,300.0 0 0 0 298.5,169.7 L 370.9,371.0 A 86.1,86.1 0 0 1 399.4,365.9 Z" fill="#81720F" opacity="0.92"/><text x="342.3" y="131.1" font-family="Montserrat, Nimbus Sans, Helvetica, Arial, sans-serif" font-size="14" font-weight="bold" fill="#10080C" text-anchor="middle">warning</text><text x="342.3" y="148.1" font-family="Hack, DejaVu Sans Mono, monospace" font-size="12" fill="#4B4045" text-anchor="middle">90–110°</text><path d="M 331.7,399.6 L 162.0,269.4 A 300.0,300.0 0 0 0 103.5,406.2 L 314.9,438.9 A 86.1,86.1 0 0 1 331.7,399.6 Z" fill="#058751" opacity="0.92"/><text x="96.6" y="326.3" font-family="Montserrat, Nimbus Sans, Helvetica, Arial, sans-serif" font-size="14" font-weight="bold" fill="#10080C" text-anchor="end">success</text><text x="96.6" y="343.3" font-family="Hack, DejaVu Sans Mono, monospace" font-size="12" fill="#4B4045" text-anchor="end">142–171°</text><path d="M 372.4,533.6 L 303.9,736.2 A 300.0,300.0 0 0 0 368.9,750.4 L 391.1,537.6 A 86.1,86.1 0 0 1 372.4,533.6 Z" fill="#026BE3" opacity="0.92"/><text x="329.6" y="778.4" font-family="Montserrat, Nimbus Sans, Helvetica, Arial, sans-serif" font-size="14" font-weight="bold" fill="#10080C" text-anchor="middle">info-blue</text><text x="329.6" y="795.4" font-family="Hack, DejaVu Sans Mono, monospace" font-size="12" fill="#4B4045" text-anchor="middle">251–264°</text><pattern id="gd" width="7" height="7" patternTransform="rotate(45)" patternUnits="userSpaceOnUse"><line x1="0" y1="0" x2="0" y2="7" stroke="#4B4045" stroke-width="2.5" opacity="0.45"/></pattern><path d="M 391.1,537.6 L 368.9,750.4 A 300.0,300.0 0 0 0 467.8,744.2 L 419.4,535.9 A 86.1,86.1 0 0 1 391.1,537.6 Z" fill="url(#gd)"/><path d="M 485.9,446.9 L 699.5,434.3 A 300.0,300.0 0 0 0 677.4,337.7 L 479.6,419.2 A 86.1,86.1 0 0 1 485.9,446.9 Z" fill="url(#gd)"/><path d="M 419.4,535.9 L 467.8,744.2 A 300.0,300.0 0 0 0 699.5,434.3 L 485.9,446.9 A 86.1,86.1 0 0 1 419.4,535.9 Z" fill="#521436" opacity="0.22" stroke="#10080C" stroke-width="2"/><text x="757.5" y="508.6" font-family="Montserrat, Nimbus Sans, Helvetica, Arial, sans-serif" font-size="15" font-weight="bold" fill="#10080C" text-anchor="middle">the remainder</text><text x="757.5" y="527.6" font-family="Hack, DejaVu Sans Mono, monospace" font-size="12" fill="#4B4045" text-anchor="middle">283.1–3.4°, home hue 351.0°</text><line x1="400" y1="452" x2="696.3" y2="498.9" stroke="#10080C" stroke-width="1.5" stroke-dasharray="5 4" opacity="0.7"/><circle cx="400" cy="452" r="86.1" fill="#F1E4E9" stroke="#10080C" stroke-width="1.5" stroke-dasharray="4 3"/><clipPath id="c92153"><circle cx="414.8" cy="454.3" r="14"/></clipPath><rect x="400.8" y="440.3" width="28" height="7.00" fill="#F1E4E9" clip-path="url(#c92153)"/><rect x="400.8" y="447.3" width="28" height="7.00" fill="#BAADB2" clip-path="url(#c92153)"/><rect x="400.8" y="454.3" width="28" height="7.00" fill="#4B4045" clip-path="url(#c92153)"/><rect x="400.8" y="461.3" width="28" height="7.00" fill="#10080C" clip-path="url(#c92153)"/><circle cx="414.8" cy="454.3" r="14" fill="none" stroke="#10080C" stroke-width="2"/><clipPath id="c54670"><circle cx="492.6" cy="466.7" r="14"/></clipPath><rect x="478.6" y="452.7" width="28" height="9.33" fill="#521436" clip-path="url(#c54670)"/><rect x="478.6" y="462.0" width="28" height="9.33" fill="#007891" clip-path="url(#c54670)"/><rect x="478.6" y="471.3" width="28" height="9.33" fill="#763555" clip-path="url(#c54670)"/><circle cx="492.6" cy="466.7" r="14" fill="none" stroke="#10080C" stroke-width="2"/><text x="388.8" y="458.3" font-family="Montserrat, Nimbus Sans, Helvetica, Arial, sans-serif" font-size="12" font-weight="bold" fill="#10080C" text-anchor="end" stroke="#F1E4E9" stroke-width="3.5" style="paint-order:stroke fill">4 neutrals</text><text x="518.6" y="471.7" font-family="Montserrat, Nimbus Sans, Helvetica, Arial, sans-serif" font-size="12" font-weight="bold" fill="#10080C" text-anchor="start" stroke="#F1E4E9" stroke-width="3.5" style="paint-order:stroke fill">3 chrome hues</text><text x="400.0" y="383.9" font-family="Hack, DejaVu Sans Mono, monospace" font-size="11" fill="#4B4045" text-anchor="middle" stroke="#F1E4E9" stroke-width="3.5" style="paint-order:stroke fill">C_FLOOR 0.092</text><circle cx="384.1" cy="540.6" r="8" fill="none" stroke="#10080C" stroke-width="2.5"/><line x1="379.1" y1="535.6" x2="389.1" y2="545.6" stroke="#10080C" stroke-width="2"/><line x1="379.1" y1="545.6" x2="389.1" y2="535.6" stroke="#10080C" stroke-width="2"/><text x="378.1" y="578.1" font-family="Hack, DejaVu Sans Mono, monospace" font-size="11" fill="#10080C" text-anchor="end" stroke="#F1E4E9" stroke-width="3.5" style="paint-order:stroke fill">blue #1B3A6D</text><circle cx="391.4" cy="362.3" r="8" fill="none" stroke="#10080C" stroke-width="2.5"/><line x1="386.4" y1="357.3" x2="396.4" y2="367.3" stroke="#10080C" stroke-width="2"/><line x1="386.4" y1="367.3" x2="396.4" y2="357.3" stroke="#10080C" stroke-width="2"/><text x="388.2" y="332.4" font-family="Hack, DejaVu Sans Mono, monospace" font-size="11" fill="#10080C" text-anchor="end" stroke="#F1E4E9" stroke-width="3.5" style="paint-order:stroke fill">yellow #DFCC82</text><circle cx="535.8" cy="351.4" r="8" fill="none" stroke="#10080C" stroke-width="2.5"/><line x1="530.8" y1="346.4" x2="540.8" y2="356.4" stroke="#10080C" stroke-width="2"/><line x1="530.8" y1="356.4" x2="540.8" y2="346.4" stroke="#10080C" stroke-width="2"/><text x="563.1" y="335.2" font-family="Hack, DejaVu Sans Mono, monospace" font-size="11" fill="#10080C" text-anchor="start" stroke="#F1E4E9" stroke-width="3.5" style="paint-order:stroke fill">red #D64D24</text><text x="828.0" y="150.0" font-family="Montserrat, Nimbus Sans, Helvetica, Arial, sans-serif" font-size="15" font-weight="bold" fill="#10080C" text-anchor="start">The bars, derived from the poles themselves</text><text x="828.0" y="176.0" font-family="Hack, DejaVu Sans Mono, monospace" font-size="13" font-weight="bold" fill="#10080C" text-anchor="start">C_FLOOR</text><text x="924.0" y="176.0" font-family="Hack, DejaVu Sans Mono, monospace" font-size="13" fill="#10080C" text-anchor="start">0.092</text><text x="828.0" y="193.0" font-family="Montserrat, Nimbus Sans, Helvetica, Arial, sans-serif" font-size="11" fill="#4B4045" text-anchor="start">chroma of the faintest realized pole</text><text x="828.0" y="210.0" font-family="Hack, DejaVu Sans Mono, monospace" font-size="13" font-weight="bold" fill="#10080C" text-anchor="start">DELTA_MAX</text><text x="924.0" y="210.0" font-family="Hack, DejaVu Sans Mono, monospace" font-size="13" fill="#10080C" text-anchor="start">19°</text><text x="828.0" y="227.0" font-family="Montserrat, Nimbus Sans, Helvetica, Arial, sans-serif" font-size="11" fill="#4B4045" text-anchor="start">poles' own nearest-neighbour gap</text><text x="828.0" y="244.0" font-family="Hack, DejaVu Sans Mono, monospace" font-size="13" font-weight="bold" fill="#10080C" text-anchor="start">C_REF</text><text x="924.0" y="244.0" font-family="Hack, DejaVu Sans Mono, monospace" font-size="13" fill="#10080C" text-anchor="start">0.179</text><text x="828.0" y="261.0" font-family="Montserrat, Nimbus Sans, Helvetica, Arial, sans-serif" font-size="11" fill="#4B4045" text-anchor="start">a signal's own median chroma</text><text x="828.0" y="278.0" font-family="Hack, DejaVu Sans Mono, monospace" font-size="13" font-weight="bold" fill="#10080C" text-anchor="start">home hue</text><text x="924.0" y="278.0" font-family="Hack, DejaVu Sans Mono, monospace" font-size="13" fill="#10080C" text-anchor="start">351.0°</text><text x="828.0" y="295.0" font-family="Montserrat, Nimbus Sans, Helvetica, Arial, sans-serif" font-size="11" fill="#4B4045" text-anchor="start">center of the widest unclaimed arc</text><text x="828.0" y="330.0" font-family="Montserrat, Nimbus Sans, Helvetica, Arial, sans-serif" font-size="15" font-weight="bold" fill="#10080C" text-anchor="start">Reading the wheel</text><circle cx="837" cy="351" r="9" fill="#763555" stroke="#10080C" stroke-width="2"/><text x="854.0" y="356.0" font-family="Montserrat, Nimbus Sans, Helvetica, Arial, sans-serif" font-size="12" fill="#4B4045" text-anchor="start">a Remainder value — clear of every pole</text><circle cx="837" cy="380" r="8" fill="none" stroke="#10080C" stroke-width="2.5"/><line x1="832" y1="375" x2="842" y2="385" stroke="#10080C" stroke-width="2"/><line x1="832" y1="385" x2="842" y2="375" stroke="#10080C" stroke-width="2"/><text x="854.0" y="385.0" font-family="Montserrat, Nimbus Sans, Helvetica, Arial, sans-serif" font-size="12" fill="#4B4045" text-anchor="start">a De Stijl chrome hue — lands in a pole (§0b)</text><rect x="828" y="401" width="18" height="14" fill="url(#gd)" stroke="#4B4045" stroke-width="0.5"/><text x="854.0" y="413.0" font-family="Montserrat, Nimbus Sans, Helvetica, Arial, sans-serif" font-size="12" fill="#4B4045" text-anchor="start">guard band — DELTA_MAX shaved off each end</text><text x="846.0" y="462.0" font-family="Montserrat, Nimbus Sans, Helvetica, Arial, sans-serif" font-size="15" font-weight="bold" fill="#10080C" text-anchor="start">The lightness axis</text><text x="846.0" y="480.0" font-family="Montserrat, Nimbus Sans, Helvetica, Arial, sans-serif" font-size="11" fill="#4B4045" text-anchor="start">What the wheel cannot show: #FFFFFF and #000000 have no</text><text x="846.0" y="493.0" font-family="Montserrat, Nimbus Sans, Helvetica, Arial, sans-serif" font-size="11" fill="#4B4045" text-anchor="start">hue, so both collapse to its center. The ladder stops short</text><text x="846.0" y="506.0" font-family="Montserrat, Nimbus Sans, Helvetica, Arial, sans-serif" font-size="11" fill="#4B4045" text-anchor="start">of each, and the pole test now refuses them (§3).</text><rect x="846" y="524" width="46" height="1.2" fill="#FFFFFF"/><rect x="846" y="525" width="46" height="1.2" fill="#FEFEFE"/><rect x="846" y="526" width="46" height="1.2" fill="#FCFCFC"/><rect x="846" y="527" width="46" height="1.2" fill="#FBFBFB"/><rect x="846" y="528" width="46" height="1.2" fill="#FAFAFA"/><rect x="846" y="529" width="46" height="1.2" fill="#F8F8F8"/><rect x="846" y="530" width="46" height="1.2" fill="#F7F7F7"/><rect x="846" y="531" width="46" height="1.2" fill="#FFF2F7"/><rect x="846" y="532" width="46" height="1.2" fill="#FEF1F6"/><rect x="846" y="533" width="46" height="1.2" fill="#FDEFF5"/><rect x="846" y="534" width="46" height="1.2" fill="#FBEEF3"/><rect x="846" y="535" width="46" height="1.2" fill="#FAEDF2"/><rect x="846" y="536" width="46" height="1.2" fill="#F9EBF1"/><rect x="846" y="537" width="46" height="1.2" fill="#F8EAF0"/><rect x="846" y="538" width="46" height="1.2" fill="#F6E9EE"/><rect x="846" y="539" width="46" height="1.2" fill="#F5E8ED"/><rect x="846" y="540" width="46" height="1.2" fill="#F4E6EC"/><rect x="846" y="541" width="46" height="1.2" fill="#F2E5EA"/><rect x="846" y="542" width="46" height="1.2" fill="#F1E4E9"/><rect x="846" y="543" width="46" height="1.2" fill="#F0E3E8"/><rect x="846" y="544" width="46" height="1.2" fill="#EEE1E7"/><rect x="846" y="545" width="46" height="1.2" fill="#EDE0E5"/><rect x="846" y="546" width="46" height="1.2" fill="#ECDFE4"/><rect x="846" y="547" width="46" height="1.2" fill="#EBDDE3"/><rect x="846" y="548" width="46" height="1.2" fill="#E9DCE1"/><rect x="846" y="549" width="46" height="1.2" fill="#E8DBE0"/><rect x="846" y="550" width="46" height="1.2" fill="#E7DADF"/><rect x="846" y="551" width="46" height="1.2" fill="#E5D8DE"/><rect x="846" y="552" width="46" height="1.2" fill="#E4D7DC"/><rect x="846" y="553" width="46" height="1.2" fill="#E3D6DB"/><rect x="846" y="554" width="46" height="1.2" fill="#E2D5DA"/><rect x="846" y="555" width="46" height="1.2" fill="#E0D3D9"/><rect x="846" y="556" width="46" height="1.2" fill="#DFD2D7"/><rect x="846" y="557" width="46" height="1.2" fill="#DED1D6"/><rect x="846" y="558" width="46" height="1.2" fill="#DDD0D5"/><rect x="846" y="559" width="46" height="1.2" fill="#DBCED4"/><rect x="846" y="560" width="46" height="1.2" fill="#DACDD2"/><rect x="846" y="561" width="46" height="1.2" fill="#D9CCD1"/><rect x="846" y="562" width="46" height="1.2" fill="#D7CBD0"/><rect x="846" y="563" width="46" height="1.2" fill="#D6C9CE"/><rect x="846" y="564" width="46" height="1.2" fill="#D5C8CD"/><rect x="846" y="565" width="46" height="1.2" fill="#D4C7CC"/><rect x="846" y="566" width="46" height="1.2" fill="#D2C6CB"/><rect x="846" y="567" width="46" height="1.2" fill="#D1C4C9"/><rect x="846" y="568" width="46" height="1.2" fill="#D0C3C8"/><rect x="846" y="569" width="46" height="1.2" fill="#CFC2C7"/><rect x="846" y="570" width="46" height="1.2" fill="#CDC1C6"/><rect x="846" y="571" width="46" height="1.2" fill="#CCBFC5"/><rect x="846" y="572" width="46" height="1.2" fill="#CBBEC3"/><rect x="846" y="573" width="46" height="1.2" fill="#CABDC2"/><rect x="846" y="574" width="46" height="1.2" fill="#C8BCC1"/><rect x="846" y="575" width="46" height="1.2" fill="#C7BAC0"/><rect x="846" y="576" width="46" height="1.2" fill="#C6B9BE"/><rect x="846" y="577" width="46" height="1.2" fill="#C5B8BD"/><rect x="846" y="578" width="46" height="1.2" fill="#C3B7BC"/><rect x="846" y="579" width="46" height="1.2" fill="#C2B6BB"/><rect x="846" y="580" width="46" height="1.2" fill="#C1B4B9"/><rect x="846" y="581" width="46" height="1.2" fill="#C0B3B8"/><rect x="846" y="582" width="46" height="1.2" fill="#BEB2B7"/><rect x="846" y="583" width="46" height="1.2" fill="#BDB1B6"/><rect x="846" y="584" width="46" height="1.2" fill="#BCAFB5"/><rect x="846" y="585" width="46" height="1.2" fill="#BBAEB3"/><rect x="846" y="586" width="46" height="1.2" fill="#BAADB2"/><rect x="846" y="587" width="46" height="1.2" fill="#B8ACB1"/><rect x="846" y="588" width="46" height="1.2" fill="#B7ABB0"/><rect x="846" y="589" width="46" height="1.2" fill="#B6A9AE"/><rect x="846" y="590" width="46" height="1.2" fill="#B5A8AD"/><rect x="846" y="591" width="46" height="1.2" fill="#B3A7AC"/><rect x="846" y="592" width="46" height="1.2" fill="#B2A6AB"/><rect x="846" y="593" width="46" height="1.2" fill="#B1A5AA"/><rect x="846" y="594" width="46" height="1.2" fill="#B0A3A8"/><rect x="846" y="595" width="46" height="1.2" fill="#AFA2A7"/><rect x="846" y="596" width="46" height="1.2" fill="#ADA1A6"/><rect x="846" y="597" width="46" height="1.2" fill="#ACA0A5"/><rect x="846" y="598" width="46" height="1.2" fill="#AB9FA4"/><rect x="846" y="599" width="46" height="1.2" fill="#AA9DA2"/><rect x="846" y="600" width="46" height="1.2" fill="#A99CA1"/><rect x="846" y="601" width="46" height="1.2" fill="#A79BA0"/><rect x="846" y="602" width="46" height="1.2" fill="#A69A9F"/><rect x="846" y="603" width="46" height="1.2" fill="#A5999E"/><rect x="846" y="604" width="46" height="1.2" fill="#A4979C"/><rect x="846" y="605" width="46" height="1.2" fill="#A2969B"/><rect x="846" y="606" width="46" height="1.2" fill="#A1959A"/><rect x="846" y="607" width="46" height="1.2" fill="#A09499"/><rect x="846" y="608" width="46" height="1.2" fill="#9F9398"/><rect x="846" y="609" width="46" height="1.2" fill="#9E9296"/><rect x="846" y="610" width="46" height="1.2" fill="#9D9095"/><rect x="846" y="611" width="46" height="1.2" fill="#9B8F94"/><rect x="846" y="612" width="46" height="1.2" fill="#9A8E93"/><rect x="846" y="613" width="46" height="1.2" fill="#998D92"/><rect x="846" y="614" width="46" height="1.2" fill="#988C91"/><rect x="846" y="615" width="46" height="1.2" fill="#978B8F"/><rect x="846" y="616" width="46" height="1.2" fill="#95898E"/><rect x="846" y="617" width="46" height="1.2" fill="#94888D"/><rect x="846" y="618" width="46" height="1.2" fill="#93878C"/><rect x="846" y="619" width="46" height="1.2" fill="#92868B"/><rect x="846" y="620" width="46" height="1.2" fill="#91858A"/><rect x="846" y="621" width="46" height="1.2" fill="#908488"/><rect x="846" y="622" width="46" height="1.2" fill="#8E8287"/><rect x="846" y="623" width="46" height="1.2" fill="#8D8186"/><rect x="846" y="624" width="46" height="1.2" fill="#8C8085"/><rect x="846" y="625" width="46" height="1.2" fill="#8B7F84"/><rect x="846" y="626" width="46" height="1.2" fill="#8A7E83"/><rect x="846" y="627" width="46" height="1.2" fill="#897D81"/><rect x="846" y="628" width="46" height="1.2" fill="#877C80"/><rect x="846" y="629" width="46" height="1.2" fill="#867A7F"/><rect x="846" y="630" width="46" height="1.2" fill="#85797E"/><rect x="846" y="631" width="46" height="1.2" fill="#84787D"/><rect x="846" y="632" width="46" height="1.2" fill="#83777C"/><rect x="846" y="633" width="46" height="1.2" fill="#82767B"/><rect x="846" y="634" width="46" height="1.2" fill="#807579"/><rect x="846" y="635" width="46" height="1.2" fill="#7F7478"/><rect x="846" y="636" width="46" height="1.2" fill="#7E7277"/><rect x="846" y="637" width="46" height="1.2" fill="#7D7176"/><rect x="846" y="638" width="46" height="1.2" fill="#7C7075"/><rect x="846" y="639" width="46" height="1.2" fill="#7B6F74"/><rect x="846" y="640" width="46" height="1.2" fill="#7A6E73"/><rect x="846" y="641" width="46" height="1.2" fill="#786D72"/><rect x="846" y="642" width="46" height="1.2" fill="#776C70"/><rect x="846" y="643" width="46" height="1.2" fill="#766B6F"/><rect x="846" y="644" width="46" height="1.2" fill="#756A6E"/><rect x="846" y="645" width="46" height="1.2" fill="#74686D"/><rect x="846" y="646" width="46" height="1.2" fill="#73676C"/><rect x="846" y="647" width="46" height="1.2" fill="#72666B"/><rect x="846" y="648" width="46" height="1.2" fill="#70656A"/><rect x="846" y="649" width="46" height="1.2" fill="#6F6469"/><rect x="846" y="650" width="46" height="1.2" fill="#6E6368"/><rect x="846" y="651" width="46" height="1.2" fill="#6D6266"/><rect x="846" y="652" width="46" height="1.2" fill="#6C6165"/><rect x="846" y="653" width="46" height="1.2" fill="#6B6064"/><rect x="846" y="654" width="46" height="1.2" fill="#6A5F63"/><rect x="846" y="655" width="46" height="1.2" fill="#695D62"/><rect x="846" y="656" width="46" height="1.2" fill="#685C61"/><rect x="846" y="657" width="46" height="1.2" fill="#665B60"/><rect x="846" y="658" width="46" height="1.2" fill="#655A5F"/><rect x="846" y="659" width="46" height="1.2" fill="#64595E"/><rect x="846" y="660" width="46" height="1.2" fill="#63585D"/><rect x="846" y="661" width="46" height="1.2" fill="#62575C"/><rect x="846" y="662" width="46" height="1.2" fill="#61565A"/><rect x="846" y="663" width="46" height="1.2" fill="#605559"/><rect x="846" y="664" width="46" height="1.2" fill="#5F5458"/><rect x="846" y="665" width="46" height="1.2" fill="#5E5357"/><rect x="846" y="666" width="46" height="1.2" fill="#5D5256"/><rect x="846" y="667" width="46" height="1.2" fill="#5C5155"/><rect x="846" y="668" width="46" height="1.2" fill="#5A5054"/><rect x="846" y="669" width="46" height="1.2" fill="#594E53"/><rect x="846" y="670" width="46" height="1.2" fill="#584D52"/><rect x="846" y="671" width="46" height="1.2" fill="#574C51"/><rect x="846" y="672" width="46" height="1.2" fill="#564B50"/><rect x="846" y="673" width="46" height="1.2" fill="#554A4F"/><rect x="846" y="674" width="46" height="1.2" fill="#54494E"/><rect x="846" y="675" width="46" height="1.2" fill="#53484D"/><rect x="846" y="676" width="46" height="1.2" fill="#52474C"/><rect x="846" y="677" width="46" height="1.2" fill="#51464B"/><rect x="846" y="678" width="46" height="1.2" fill="#504549"/><rect x="846" y="679" width="46" height="1.2" fill="#4F4448"/><rect x="846" y="680" width="46" height="1.2" fill="#4E4347"/><rect x="846" y="681" width="46" height="1.2" fill="#4D4246"/><rect x="846" y="682" width="46" height="1.2" fill="#4C4145"/><rect x="846" y="683" width="46" height="1.2" fill="#4A4044"/><rect x="846" y="684" width="46" height="1.2" fill="#493F43"/><rect x="846" y="685" width="46" height="1.2" fill="#483E42"/><rect x="846" y="686" width="46" height="1.2" fill="#473D41"/><rect x="846" y="687" width="46" height="1.2" fill="#463C40"/><rect x="846" y="688" width="46" height="1.2" fill="#453B3F"/><rect x="846" y="689" width="46" height="1.2" fill="#443A3E"/><rect x="846" y="690" width="46" height="1.2" fill="#43393D"/><rect x="846" y="691" width="46" height="1.2" fill="#42383C"/><rect x="846" y="692" width="46" height="1.2" fill="#41373B"/><rect x="846" y="693" width="46" height="1.2" fill="#40363A"/><rect x="846" y="694" width="46" height="1.2" fill="#3F3539"/><rect x="846" y="695" width="46" height="1.2" fill="#3E3438"/><rect x="846" y="696" width="46" height="1.2" fill="#3D3337"/><rect x="846" y="697" width="46" height="1.2" fill="#3C3236"/><rect x="846" y="698" width="46" height="1.2" fill="#3B3135"/><rect x="846" y="699" width="46" height="1.2" fill="#3A3034"/><rect x="846" y="700" width="46" height="1.2" fill="#392F33"/><rect x="846" y="701" width="46" height="1.2" fill="#382E32"/><rect x="846" y="702" width="46" height="1.2" fill="#372D31"/><rect x="846" y="703" width="46" height="1.2" fill="#362C30"/><rect x="846" y="704" width="46" height="1.2" fill="#352B2F"/><rect x="846" y="705" width="46" height="1.2" fill="#342A2E"/><rect x="846" y="706" width="46" height="1.2" fill="#33292D"/><rect x="846" y="707" width="46" height="1.2" fill="#32282C"/><rect x="846" y="708" width="46" height="1.2" fill="#31272B"/><rect x="846" y="709" width="46" height="1.2" fill="#30262A"/><rect x="846" y="710" width="46" height="1.2" fill="#2F262A"/><rect x="846" y="711" width="46" height="1.2" fill="#2E2529"/><rect x="846" y="712" width="46" height="1.2" fill="#2D2428"/><rect x="846" y="713" width="46" height="1.2" fill="#2C2327"/><rect x="846" y="714" width="46" height="1.2" fill="#2B2226"/><rect x="846" y="715" width="46" height="1.2" fill="#2A2125"/><rect x="846" y="716" width="46" height="1.2" fill="#292024"/><rect x="846" y="717" width="46" height="1.2" fill="#281F23"/><rect x="846" y="718" width="46" height="1.2" fill="#271E22"/><rect x="846" y="719" width="46" height="1.2" fill="#261D21"/><rect x="846" y="720" width="46" height="1.2" fill="#261C20"/><rect x="846" y="721" width="46" height="1.2" fill="#251B1F"/><rect x="846" y="722" width="46" height="1.2" fill="#241A1E"/><rect x="846" y="723" width="46" height="1.2" fill="#231A1D"/><rect x="846" y="724" width="46" height="1.2" fill="#22191D"/><rect x="846" y="725" width="46" height="1.2" fill="#21181C"/><rect x="846" y="726" width="46" height="1.2" fill="#20171B"/><rect x="846" y="727" width="46" height="1.2" fill="#1F161A"/><rect x="846" y="728" width="46" height="1.2" fill="#1E1519"/><rect x="846" y="729" width="46" height="1.2" fill="#1D1418"/><rect x="846" y="730" width="46" height="1.2" fill="#1C1317"/><rect x="846" y="731" width="46" height="1.2" fill="#1B1316"/><rect x="846" y="732" width="46" height="1.2" fill="#1A1215"/><rect x="846" y="733" width="46" height="1.2" fill="#1A1115"/><rect x="846" y="734" width="46" height="1.2" fill="#191014"/><rect x="846" y="735" width="46" height="1.2" fill="#180F13"/><rect x="846" y="736" width="46" height="1.2" fill="#170E12"/><rect x="846" y="737" width="46" height="1.2" fill="#160E11"/><rect x="846" y="738" width="46" height="1.2" fill="#150D10"/><rect x="846" y="739" width="46" height="1.2" fill="#140C0F"/><rect x="846" y="740" width="46" height="1.2" fill="#130B0F"/><rect x="846" y="741" width="46" height="1.2" fill="#120A0E"/><rect x="846" y="742" width="46" height="1.2" fill="#12090D"/><rect x="846" y="743" width="46" height="1.2" fill="#11090C"/><rect x="846" y="744" width="46" height="1.2" fill="#10080B"/><rect x="846" y="745" width="46" height="1.2" fill="#0F070B"/><rect x="846" y="746" width="46" height="1.2" fill="#0E070A"/><rect x="846" y="747" width="46" height="1.2" fill="#0D0609"/><rect x="846" y="748" width="46" height="1.2" fill="#0C0508"/><rect x="846" y="749" width="46" height="1.2" fill="#0C0508"/><rect x="846" y="750" width="46" height="1.2" fill="#0B0407"/><rect x="846" y="751" width="46" height="1.2" fill="#0A0406"/><rect x="846" y="752" width="46" height="1.2" fill="#090406"/><rect x="846" y="753" width="46" height="1.2" fill="#080305"/><rect x="846" y="754" width="46" height="1.2" fill="#080305"/><rect x="846" y="755" width="46" height="1.2" fill="#070204"/><rect x="846" y="756" width="46" height="1.2" fill="#060204"/><rect x="846" y="757" width="46" height="1.2" fill="#060203"/><rect x="846" y="758" width="46" height="1.2" fill="#050203"/><rect x="846" y="759" width="46" height="1.2" fill="#050103"/><rect x="846" y="760" width="46" height="1.2" fill="#040102"/><rect x="846" y="761" width="46" height="1.2" fill="#040102"/><rect x="846" y="762" width="46" height="1.2" fill="#030102"/><rect x="846" y="763" width="46" height="1.2" fill="#030102"/><rect x="846" y="764" width="46" height="1.2" fill="#030101"/><rect x="846" y="765" width="46" height="1.2" fill="#020001"/><rect x="846" y="766" width="46" height="1.2" fill="#020001"/><rect x="846" y="767" width="46" height="1.2" fill="#020001"/><rect x="846" y="768" width="46" height="1.2" fill="#010001"/><rect x="846" y="769" width="46" height="1.2" fill="#010001"/><rect x="846" y="770" width="46" height="1.2" fill="#010000"/><rect x="846" y="771" width="46" height="1.2" fill="#010000"/><rect x="846" y="772" width="46" height="1.2" fill="#010000"/><rect x="846" y="773" width="46" height="1.2" fill="#010000"/><rect x="846" y="774" width="46" height="1.2" fill="#000000"/><rect x="846" y="775" width="46" height="1.2" fill="#000000"/><rect x="846" y="776" width="46" height="1.2" fill="#000000"/><rect x="846" y="777" width="46" height="1.2" fill="#000000"/><rect x="846" y="778" width="46" height="1.2" fill="#000000"/><rect x="846" y="779" width="46" height="1.2" fill="#000000"/><rect x="846" y="780" width="46" height="1.2" fill="#000000"/><rect x="846" y="781" width="46" height="1.2" fill="#000000"/><rect x="846" y="524" width="46" height="258" fill="none" stroke="#10080C" stroke-width="1.5"/><rect x="839" y="517" width="60" height="7" fill="url(#gd)" stroke="#10080C" stroke-width="1"/><path d="M 902,534 L 894,522 L 898,520" fill="none" stroke="#4B4045" stroke-width="1"/><text x="910.0" y="538.0" font-family="Hack, DejaVu Sans Mono, monospace" font-size="11" font-weight="bold" fill="#10080C" text-anchor="start">#FFFFFF  L 1.00</text><text x="910.0" y="551.0" font-family="Montserrat, Nimbus Sans, Helvetica, Arial, sans-serif" font-size="10" fill="#4B4045" text-anchor="start">reserved: legend on a semantic field,</text><text x="910.0" y="563.0" font-family="Montserrat, Nimbus Sans, Helvetica, Arial, sans-serif" font-size="10" fill="#4B4045" text-anchor="start">and what an unstyled surface renders</text><text x="910.0" y="580.0" font-family="Montserrat, Nimbus Sans, Helvetica, Arial, sans-serif" font-size="10" fill="#4B4045" text-anchor="start">the ladder stops 0.07 below it, by</text><text x="910.0" y="592.0" font-family="Montserrat, Nimbus Sans, Helvetica, Arial, sans-serif" font-size="10" fill="#4B4045" text-anchor="start">choice: a field at #FFFFFF glares</text><rect x="839" y="782" width="60" height="7" fill="url(#gd)" stroke="#10080C" stroke-width="1"/><text x="910.0" y="784.0" font-family="Hack, DejaVu Sans Mono, monospace" font-size="11" font-weight="bold" fill="#10080C" text-anchor="start">#000000  L 0.00</text><text x="910.0" y="797.0" font-family="Montserrat, Nimbus Sans, Helvetica, Arial, sans-serif" font-size="10" fill="#4B4045" text-anchor="start">reserved: legend on a semantic field</text><line x1="836" y1="541.9" x2="900" y2="541.9" stroke="#10080C" stroke-width="2"/><text x="832.0" y="545.9" font-family="Hack, DejaVu Sans Mono, monospace" font-size="11" font-weight="bold" fill="#10080C" text-anchor="end">WHITE</text><text x="832.0" y="557.9" font-family="Hack, DejaVu Sans Mono, monospace" font-size="10" fill="#4B4045" text-anchor="end">L 0.93</text><line x1="836" y1="585.9" x2="900" y2="585.9" stroke="#10080C" stroke-width="2"/><text x="832.0" y="589.9" font-family="Hack, DejaVu Sans Mono, monospace" font-size="11" font-weight="bold" fill="#10080C" text-anchor="end">LIGHT</text><text x="832.0" y="601.9" font-family="Hack, DejaVu Sans Mono, monospace" font-size="10" fill="#4B4045" text-anchor="end">L 0.76</text><line x1="836" y1="682.8" x2="900" y2="682.8" stroke="#10080C" stroke-width="2"/><text x="832.0" y="686.8" font-family="Hack, DejaVu Sans Mono, monospace" font-size="11" font-weight="bold" fill="#10080C" text-anchor="end">DARK</text><text x="832.0" y="698.8" font-family="Hack, DejaVu Sans Mono, monospace" font-size="10" fill="#4B4045" text-anchor="end">L 0.38</text><line x1="836" y1="743.8" x2="900" y2="743.8" stroke="#10080C" stroke-width="2"/><text x="832.0" y="747.8" font-family="Hack, DejaVu Sans Mono, monospace" font-size="11" font-weight="bold" fill="#10080C" text-anchor="end">BLACK</text><text x="832.0" y="759.8" font-family="Hack, DejaVu Sans Mono, monospace" font-size="10" fill="#4B4045" text-anchor="end">L 0.15</text><text x="40.0" y="858.0" font-family="Montserrat, Nimbus Sans, Helvetica, Arial, sans-serif" font-size="16" font-weight="bold" fill="#10080C" text-anchor="start">The poles: colors systems actually ship as signals</text><text x="40.0" y="878.0" font-family="Montserrat, Nimbus Sans, Helvetica, Arial, sans-serif" font-size="12" fill="#4B4045" text-anchor="start">Each family is the hue arc its realized members span. poles.json records every member and its source.</text><text x="40.0" y="908.0" font-family="Montserrat, Nimbus Sans, Helvetica, Arial, sans-serif" font-size="13" font-weight="bold" fill="#10080C" text-anchor="start">destructive</text><text x="40.0" y="924.0" font-family="Hack, DejaVu Sans Mono, monospace" font-size="11" fill="#4B4045" text-anchor="start">22.4–29.2°</text><rect x="40" y="934" width="26" height="34" fill="#AF1E2D"/><rect x="70" y="934" width="26" height="34" fill="#FF3B30"/><rect x="100" y="934" width="26" height="34" fill="#D32F2F"/><rect x="130" y="934" width="26" height="34" fill="#CD0000"/><text x="40.0" y="984.0" font-family="Montserrat, Nimbus Sans, Helvetica, Arial, sans-serif" font-size="10" fill="#4B4045" text-anchor="start">error, delete, discard,</text><text x="40.0" y="997.0" font-family="Montserrat, Nimbus Sans, Helvetica, Arial, sans-serif" font-size="10" fill="#4B4045" text-anchor="start">stop</text><text x="237.0" y="908.0" font-family="Montserrat, Nimbus Sans, Helvetica, Arial, sans-serif" font-size="13" font-weight="bold" fill="#10080C" text-anchor="start">caution</text><text x="237.0" y="924.0" font-family="Hack, DejaVu Sans Mono, monospace" font-size="11" fill="#4B4045" text-anchor="start">48.1–62.6°</text><rect x="237" y="934" width="26" height="34" fill="#EF6C00"/><rect x="267" y="934" width="26" height="34" fill="#FF9500"/><rect x="297" y="934" width="26" height="34" fill="#F57C00"/><text x="237.0" y="984.0" font-family="Montserrat, Nimbus Sans, Helvetica, Arial, sans-serif" font-size="10" fill="#4B4045" text-anchor="start">alert, attention,</text><text x="237.0" y="997.0" font-family="Montserrat, Nimbus Sans, Helvetica, Arial, sans-serif" font-size="10" fill="#4B4045" text-anchor="start">pending, degraded</text><text x="434.0" y="908.0" font-family="Montserrat, Nimbus Sans, Helvetica, Arial, sans-serif" font-size="13" font-weight="bold" fill="#10080C" text-anchor="start">warning</text><text x="434.0" y="924.0" font-family="Hack, DejaVu Sans Mono, monospace" font-size="11" fill="#4B4045" text-anchor="start">90.4–109.8°</text><rect x="434" y="934" width="26" height="34" fill="#FCD116"/><rect x="464" y="934" width="26" height="34" fill="#FFCC00"/><rect x="494" y="934" width="26" height="34" fill="#CDCD00"/><text x="434.0" y="984.0" font-family="Montserrat, Nimbus Sans, Helvetica, Arial, sans-serif" font-size="10" fill="#4B4045" text-anchor="start">caution, hazard, review</text><text x="434.0" y="997.0" font-family="Montserrat, Nimbus Sans, Helvetica, Arial, sans-serif" font-size="10" fill="#4B4045" text-anchor="start">before proceeding</text><text x="631.0" y="908.0" font-family="Montserrat, Nimbus Sans, Helvetica, Arial, sans-serif" font-size="13" font-weight="bold" fill="#10080C" text-anchor="start">success</text><text x="631.0" y="924.0" font-family="Hack, DejaVu Sans Mono, monospace" font-size="11" fill="#4B4045" text-anchor="start">142.5–171.2°</text><rect x="631" y="934" width="26" height="34" fill="#006B54"/><rect x="661" y="934" width="26" height="34" fill="#34C759"/><rect x="691" y="934" width="26" height="34" fill="#388E3C"/><rect x="721" y="934" width="26" height="34" fill="#00CD00"/><text x="631.0" y="984.0" font-family="Montserrat, Nimbus Sans, Helvetica, Arial, sans-serif" font-size="10" fill="#4B4045" text-anchor="start">ok, done, confirmed,</text><text x="631.0" y="997.0" font-family="Montserrat, Nimbus Sans, Helvetica, Arial, sans-serif" font-size="10" fill="#4B4045" text-anchor="start">healthy, go</text><text x="828.0" y="908.0" font-family="Montserrat, Nimbus Sans, Helvetica, Arial, sans-serif" font-size="13" font-weight="bold" fill="#10080C" text-anchor="start">info-blue</text><text x="828.0" y="924.0" font-family="Hack, DejaVu Sans Mono, monospace" font-size="11" fill="#4B4045" text-anchor="start">251.3–264.1°</text><rect x="828" y="934" width="26" height="34" fill="#0645AD"/><rect x="858" y="934" width="26" height="34" fill="#0078D4"/><rect x="888" y="934" width="26" height="34" fill="#0A84FF"/><rect x="918" y="934" width="26" height="34" fill="#0000EE"/><text x="828.0" y="984.0" font-family="Montserrat, Nimbus Sans, Helvetica, Arial, sans-serif" font-size="10" fill="#4B4045" text-anchor="start">hyperlink, platform</text><text x="828.0" y="997.0" font-family="Montserrat, Nimbus Sans, Helvetica, Arial, sans-serif" font-size="10" fill="#4B4045" text-anchor="start">accent, selection,</text><text x="40.0" y="1026.0" font-family="Montserrat, Nimbus Sans, Helvetica, Arial, sans-serif" font-size="16" font-weight="bold" fill="#10080C" text-anchor="start">The palette: every lightness solved, both chroma levels chosen (§0c)</text><rect x="40" y="1042" width="118" height="44" fill="#F1E4E9" stroke="#10080C" stroke-width="1"/><text x="40.0" y="1102.0" font-family="Hack, DejaVu Sans Mono, monospace" font-size="12" font-weight="bold" fill="#10080C" text-anchor="start">WHITE</text><text x="40.0" y="1117.0" font-family="Hack, DejaVu Sans Mono, monospace" font-size="11" fill="#4B4045" text-anchor="start">#F1E4E9</text><text x="40.0" y="1132.0" font-family="Montserrat, Nimbus Sans, Helvetica, Arial, sans-serif" font-size="10" fill="#4B4045" text-anchor="start">cast, no readable hue</text><rect x="174" y="1042" width="118" height="44" fill="#BAADB2" stroke="#10080C" stroke-width="1"/><text x="174.0" y="1102.0" font-family="Hack, DejaVu Sans Mono, monospace" font-size="12" font-weight="bold" fill="#10080C" text-anchor="start">LIGHT</text><text x="174.0" y="1117.0" font-family="Hack, DejaVu Sans Mono, monospace" font-size="11" fill="#4B4045" text-anchor="start">#BAADB2</text><text x="174.0" y="1132.0" font-family="Montserrat, Nimbus Sans, Helvetica, Arial, sans-serif" font-size="10" fill="#4B4045" text-anchor="start">cast, no readable hue</text><rect x="308" y="1042" width="118" height="44" fill="#4B4045" stroke="#10080C" stroke-width="1"/><text x="308.0" y="1102.0" font-family="Hack, DejaVu Sans Mono, monospace" font-size="12" font-weight="bold" fill="#10080C" text-anchor="start">DARK</text><text x="308.0" y="1117.0" font-family="Hack, DejaVu Sans Mono, monospace" font-size="11" fill="#4B4045" text-anchor="start">#4B4045</text><text x="308.0" y="1132.0" font-family="Montserrat, Nimbus Sans, Helvetica, Arial, sans-serif" font-size="10" fill="#4B4045" text-anchor="start">cast, no readable hue</text><rect x="442" y="1042" width="118" height="44" fill="#10080C" stroke="#10080C" stroke-width="1"/><text x="442.0" y="1102.0" font-family="Hack, DejaVu Sans Mono, monospace" font-size="12" font-weight="bold" fill="#10080C" text-anchor="start">BLACK</text><text x="442.0" y="1117.0" font-family="Hack, DejaVu Sans Mono, monospace" font-size="11" fill="#4B4045" text-anchor="start">#10080C</text><text x="442.0" y="1132.0" font-family="Montserrat, Nimbus Sans, Helvetica, Arial, sans-serif" font-size="10" fill="#4B4045" text-anchor="start">cast, no readable hue</text><rect x="576" y="1042" width="118" height="44" fill="#763555" stroke="#10080C" stroke-width="1"/><text x="576.0" y="1102.0" font-family="Hack, DejaVu Sans Mono, monospace" font-size="12" font-weight="bold" fill="#10080C" text-anchor="start">ACCENT</text><text x="576.0" y="1117.0" font-family="Hack, DejaVu Sans Mono, monospace" font-size="11" fill="#4B4045" text-anchor="start">#763555</text><text x="576.0" y="1132.0" font-family="Montserrat, Nimbus Sans, Helvetica, Arial, sans-serif" font-size="10" fill="#4B4045" text-anchor="start">clears 31°</text><rect x="710" y="1042" width="118" height="44" fill="#521436" stroke="#10080C" stroke-width="1"/><text x="710.0" y="1102.0" font-family="Hack, DejaVu Sans Mono, monospace" font-size="12" font-weight="bold" fill="#10080C" text-anchor="start">SELECT</text><text x="710.0" y="1117.0" font-family="Hack, DejaVu Sans Mono, monospace" font-size="11" fill="#4B4045" text-anchor="start">#521436</text><text x="710.0" y="1132.0" font-family="Montserrat, Nimbus Sans, Helvetica, Arial, sans-serif" font-size="10" fill="#4B4045" text-anchor="start">clears 32°</text><rect x="844" y="1042" width="118" height="44" fill="#007891" stroke="#10080C" stroke-width="1"/><text x="844.0" y="1102.0" font-family="Hack, DejaVu Sans Mono, monospace" font-size="12" font-weight="bold" fill="#10080C" text-anchor="start">CURSOR</text><text x="844.0" y="1117.0" font-family="Hack, DejaVu Sans Mono, monospace" font-size="11" fill="#4B4045" text-anchor="start">#007891</text><text x="844.0" y="1132.0" font-family="Montserrat, Nimbus Sans, Helvetica, Arial, sans-serif" font-size="10" fill="#4B4045" text-anchor="start">clears 32°</text></svg>